# Blender 3.6.0
# www.blender.org
mtllib 0soap.mtl
o path1054
v -6.849878 0.000000 -2.073763
v -5.807954 0.000000 -2.839894
v -4.576475 0.000000 -3.407437
v -3.206253 0.000000 -3.794178
v -1.748103 0.000000 -4.017905
v -0.252835 0.000000 -4.096406
v 1.228736 0.000000 -4.047468
v 2.645798 0.000000 -3.888881
v 3.947536 0.000000 -3.638431
v 5.083140 0.000000 -3.313906
v 6.001797 0.000000 -2.933095
v 6.652691 0.000000 -2.513784
v 6.985011 0.000000 -2.073763
v 6.985011 0.000000 -1.990668
v 6.985011 0.000000 -1.760938
v 6.985011 0.000000 -1.413897
v 6.985011 0.000000 -0.978874
v 6.985011 0.000000 -0.485198
v 6.985011 0.000000 0.037807
v 6.985011 0.000000 0.560812
v 6.985011 0.000000 1.054489
v 6.985011 0.000000 1.489511
v 6.985011 0.000000 1.836551
v 6.985011 0.000000 2.066282
v 6.985011 0.000000 2.149376
v 6.723487 0.000000 2.498471
v 6.126010 0.000000 2.853361
v 5.244636 0.000000 3.193267
v 4.131424 0.000000 3.497408
v 2.838429 0.000000 3.745004
v 1.417711 0.000000 3.915275
v -0.078674 0.000000 3.987441
v -1.598670 0.000000 3.940721
v -3.090219 0.000000 3.754334
v -4.501263 0.000000 3.407501
v -5.779746 0.000000 2.879442
v -6.873609 0.000000 2.149376
v -6.873142 0.000000 2.066282
v -6.871851 0.000000 1.836551
v -6.869901 0.000000 1.489511
v -6.867456 0.000000 1.054489
v -6.864682 0.000000 0.560812
v -6.861743 0.000000 0.037807
v -6.858805 0.000000 -0.485198
v -6.856030 0.000000 -0.978874
v -6.853586 0.000000 -1.413897
v -6.851636 0.000000 -1.760937
v -6.850345 0.000000 -1.990667
v -6.849878 1.000000 -2.073763
v -5.807954 1.000000 -2.839894
v -4.576475 1.000000 -3.407437
v -3.206253 1.000000 -3.794178
v -1.748103 1.000000 -4.017905
v -0.252835 1.000000 -4.096406
v 1.228736 1.000000 -4.047468
v 2.645798 1.000000 -3.888881
v 3.947536 1.000000 -3.638431
v 5.083140 1.000000 -3.313906
v 6.001797 1.000000 -2.933095
v 6.652691 1.000000 -2.513784
v 6.985011 1.000000 -2.073763
v 6.985011 1.000000 -1.990668
v 6.985011 1.000000 -1.760938
v 6.985011 1.000000 -1.413897
v 6.985011 1.000000 -0.978874
v 6.985011 1.000000 -0.485198
v 6.985011 1.000000 0.037807
v 6.985011 1.000000 0.560812
v 6.985011 1.000000 1.054489
v 6.985011 1.000000 1.489511
v 6.985011 1.000000 1.836551
v 6.985011 1.000000 2.066282
v 6.985011 1.000000 2.149376
v 6.723487 1.000000 2.498471
v 6.126010 1.000000 2.853361
v 5.244636 1.000000 3.193267
v 4.131424 1.000000 3.497408
v 2.838429 1.000000 3.745004
v 1.417711 1.000000 3.915275
v -0.078674 1.000000 3.987441
v -1.598670 1.000000 3.940721
v -3.090219 1.000000 3.754334
v -4.501263 1.000000 3.407501
v -5.779746 1.000000 2.879442
v -6.873609 1.000000 2.149376
v -6.873142 1.000000 2.066282
v -6.871851 1.000000 1.836551
v -6.869901 1.000000 1.489511
v -6.867456 1.000000 1.054489
v -6.864682 1.000000 0.560812
v -6.861743 1.000000 0.037807
v -6.858805 1.000000 -0.485198
v -6.856030 1.000000 -0.978874
v -6.853586 1.000000 -1.413897
v -6.851636 1.000000 -1.760937
v -6.850345 1.000000 -1.990667
vn -0.0000 -1.0000 -0.0000
vn -0.0000 1.0000 -0.0000
vn 0.3598 -0.0000 0.9330
vn 0.0330 -0.0000 -0.9995
vn 0.7980 -0.0000 -0.6027
vn 1.0000 -0.0000 -0.0000
vn -1.0000 -0.0000 -0.0056
vn -0.5924 -0.0000 -0.8056
vn -0.4186 -0.0000 -0.9082
vn 0.1881 -0.0000 0.9822
vn -0.0307 -0.0000 0.9995
vn 0.2748 -0.0000 -0.9615
vn -0.2716 -0.0000 -0.9624
vn 0.1190 -0.0000 0.9929
vn 0.1112 -0.0000 -0.9938
vn -0.1240 -0.0000 0.9923
vn -0.1517 -0.0000 -0.9884
vn 0.0482 -0.0000 0.9988
vn -0.2387 -0.0000 0.9711
vn -0.0524 -0.0000 -0.9986
vn -0.3818 -0.0000 0.9243
vn -0.5551 -0.0000 0.8318
vn 0.3829 -0.0000 -0.9238
vn 0.5416 -0.0000 -0.8407
vn 0.1889 -0.0000 -0.9820
vn 0.8003 -0.0000 0.5996
vn 0.5107 -0.0000 0.8598
vn 0.2636 -0.0000 0.9646
vt 0.085106 0.000000
vt 0.106383 0.000000
vt 0.127660 0.000000
vt 0.148936 0.000000
vt 0.063830 0.000000
vt 0.170213 0.000000
vt 0.042553 0.000000
vt 0.191489 0.000000
vt 0.021277 0.000000
vt 0.212766 0.000000
vt 0.234043 0.000000
vt 0.000000 0.000000
vt 0.255319 0.000000
vt 1.000000 0.000000
vt 0.276596 0.000000
vt 0.297872 0.000000
vt 0.978723 0.000000
vt 0.319149 0.000000
vt 0.957447 0.000000
vt 0.936170 0.000000
vt 0.340426 0.000000
vt 0.914894 0.000000
vt 0.361702 0.000000
vt 0.893617 0.000000
vt 0.382979 0.000000
vt 0.872340 0.000000
vt 0.404255 0.000000
vt 0.851064 0.000000
vt 0.425532 0.000000
vt 0.829787 0.000000
vt 0.446809 0.000000
vt 0.808511 0.000000
vt 0.468085 0.000000
vt 0.787234 0.000000
vt 0.489362 0.000000
vt 0.765957 0.000000
vt 0.510638 0.000000
vt 0.744681 0.000000
vt 0.531915 0.000000
vt 0.553191 0.000000
vt 0.574468 0.000000
vt 0.723404 0.000000
vt 0.595745 0.000000
vt 0.702128 0.000000
vt 0.617021 0.000000
vt 0.638298 0.000000
vt 0.680851 0.000000
vt 0.659574 0.000000
s 0
f 5/1/1 6/2/1 7/3/1
f 5/1/1 7/3/1 8/4/1
f 4/5/1 5/1/1 8/4/1
f 4/5/1 8/4/1 9/6/1
f 3/7/1 4/5/1 9/6/1
f 3/7/1 9/6/1 10/8/1
f 2/9/1 3/7/1 10/8/1
f 2/9/1 10/8/1 11/10/1
f 2/9/1 11/10/1 12/11/1
f 1/12/1 2/9/1 12/11/1
f 1/12/1 12/11/1 13/13/1
f 48/14/1 1/12/1 13/13/1
f 48/14/1 13/13/1 14/15/1
f 48/14/1 14/15/1 15/16/1
f 47/17/1 48/14/1 15/16/1
f 47/17/1 15/16/1 16/18/1
f 46/19/1 47/17/1 16/18/1
f 45/20/1 46/19/1 16/18/1
f 45/20/1 16/18/1 17/21/1
f 44/22/1 45/20/1 17/21/1
f 44/22/1 17/21/1 18/23/1
f 43/24/1 44/22/1 18/23/1
f 43/24/1 18/23/1 19/25/1
f 42/26/1 43/24/1 19/25/1
f 42/26/1 19/25/1 20/27/1
f 41/28/1 42/26/1 20/27/1
f 41/28/1 20/27/1 21/29/1
f 40/30/1 41/28/1 21/29/1
f 40/30/1 21/29/1 22/31/1
f 39/32/1 40/30/1 22/31/1
f 39/32/1 22/31/1 23/33/1
f 38/34/1 39/32/1 23/33/1
f 38/34/1 23/33/1 24/35/1
f 37/36/1 38/34/1 24/35/1
f 37/36/1 24/35/1 25/37/1
f 36/38/1 37/36/1 25/37/1
f 36/38/1 25/37/1 26/39/1
f 36/38/1 26/39/1 27/40/1
f 36/38/1 27/40/1 28/41/1
f 35/42/1 36/38/1 28/41/1
f 35/42/1 28/41/1 29/43/1
f 34/44/1 35/42/1 29/43/1
f 34/44/1 29/43/1 30/45/1
f 34/44/1 30/45/1 31/46/1
f 33/47/1 34/44/1 31/46/1
f 33/47/1 31/46/1 32/48/1
f 53/1/2 55/3/2 54/2/2
f 53/1/2 56/4/2 55/3/2
f 52/5/2 56/4/2 53/1/2
f 52/5/2 57/6/2 56/4/2
f 51/7/2 57/6/2 52/5/2
f 51/7/2 58/8/2 57/6/2
f 50/9/2 58/8/2 51/7/2
f 50/9/2 59/10/2 58/8/2
f 50/9/2 60/11/2 59/10/2
f 49/12/2 60/11/2 50/9/2
f 49/12/2 61/13/2 60/11/2
f 96/14/2 61/13/2 49/12/2
f 96/14/2 62/15/2 61/13/2
f 96/14/2 63/16/2 62/15/2
f 95/17/2 63/16/2 96/14/2
f 95/17/2 64/18/2 63/16/2
f 94/19/2 64/18/2 95/17/2
f 93/20/2 64/18/2 94/19/2
f 93/20/2 65/21/2 64/18/2
f 92/22/2 65/21/2 93/20/2
f 92/22/2 66/23/2 65/21/2
f 91/24/2 66/23/2 92/22/2
f 91/24/2 67/25/2 66/23/2
f 90/26/2 67/25/2 91/24/2
f 90/26/2 68/27/2 67/25/2
f 89/28/2 68/27/2 90/26/2
f 89/28/2 69/29/2 68/27/2
f 88/30/2 69/29/2 89/28/2
f 88/30/2 70/31/2 69/29/2
f 87/32/2 70/31/2 88/30/2
f 87/32/2 71/33/2 70/31/2
f 86/34/2 71/33/2 87/32/2
f 86/34/2 72/35/2 71/33/2
f 85/36/2 72/35/2 86/34/2
f 85/36/2 73/37/2 72/35/2
f 84/38/2 73/37/2 85/36/2
f 84/38/2 74/39/2 73/37/2
f 84/38/2 75/40/2 74/39/2
f 84/38/2 76/41/2 75/40/2
f 83/42/2 76/41/2 84/38/2
f 83/42/2 77/43/2 76/41/2
f 82/44/2 77/43/2 83/42/2
f 82/44/2 78/45/2 77/43/2
f 82/44/2 79/46/2 78/45/2
f 81/47/2 79/46/2 82/44/2
f 81/47/2 80/48/2 79/46/2
f 28/41/3 27/40/3 75/40/3 76/41/3
f 7/3/4 6/2/4 54/2/4 55/3/4
f 13/13/5 12/11/5 60/11/5 61/13/5
f 15/16/6 14/15/6 62/15/6 63/16/6
f 44/22/7 43/24/7 91/24/7 92/22/7
f 2/9/8 1/12/8 49/12/8 50/9/8
f 43/24/7 42/26/7 90/26/7 91/24/7
f 16/18/6 15/16/6 63/16/6 64/18/6
f 3/7/9 2/9/9 50/9/9 51/7/9
f 30/45/10 29/43/10 77/43/10 78/45/10
f 47/17/7 46/19/7 94/19/7 95/17/7
f 33/47/11 32/48/11 80/48/11 81/47/11
f 17/21/6 16/18/6 64/18/6 65/21/6
f 10/8/12 9/6/12 57/6/12 58/8/12
f 4/5/13 3/7/13 51/7/13 52/5/13
f 31/46/14 30/45/14 78/45/14 79/46/14
f 8/4/15 7/3/15 55/3/15 56/4/15
f 34/44/16 33/47/16 81/47/16 82/44/16
f 18/23/6 17/21/6 65/21/6 66/23/6
f 5/1/17 4/5/17 52/5/17 53/1/17
f 32/48/18 31/46/18 79/46/18 80/48/18
f 35/42/19 34/44/19 82/44/19 83/42/19
f 19/25/6 18/23/6 66/23/6 67/25/6
f 6/2/20 5/1/20 53/1/20 54/2/20
f 42/26/7 41/28/7 89/28/7 90/26/7
f 36/38/21 35/42/21 83/42/21 84/38/21
f 20/27/6 19/25/6 67/25/6 68/27/6
f 37/36/22 36/38/22 84/38/22 85/36/22
f 21/29/6 20/27/6 68/27/6 69/29/6
f 1/12/7 48/14/7 96/14/7 49/12/7
f 38/34/7 37/36/7 85/36/7 86/34/7
f 22/31/6 21/29/6 69/29/6 70/31/6
f 11/10/23 10/8/23 58/8/23 59/10/23
f 48/14/7 47/17/7 95/17/7 96/14/7
f 23/33/6 22/31/6 70/31/6 71/33/6
f 39/32/7 38/34/7 86/34/7 87/32/7
f 24/35/6 23/33/6 71/33/6 72/35/6
f 12/11/24 11/10/24 59/10/24 60/11/24
f 9/6/25 8/4/25 56/4/25 57/6/25
f 25/37/6 24/35/6 72/35/6 73/37/6
f 40/30/7 39/32/7 87/32/7 88/30/7
f 45/20/7 44/22/7 92/22/7 93/20/7
f 26/39/26 25/37/26 73/37/26 74/39/26
f 41/28/7 40/30/7 88/30/7 89/28/7
f 27/40/27 26/39/27 74/39/27 75/40/27
f 46/19/7 45/20/7 93/20/7 94/19/7
f 14/15/6 13/13/6 61/13/6 62/15/6
f 29/43/28 28/41/28 76/41/28 77/43/28
