# Blender 3.6.0
# www.blender.org
mtllib 1penta.mtl
o path1073
v -6.992261 0.000000 -2.972447
v 0.862537 0.000000 -6.910881
v 7.103662 0.000000 -0.979506
v 3.188128 0.000000 6.802458
v -5.568431 0.000000 5.545006
v -6.992261 1.000000 -2.972447
v 0.862537 1.000000 -6.910881
v 7.103662 1.000000 -0.979506
v 3.188128 1.000000 6.802458
v -5.568431 1.000000 5.545006
vn -0.0000 -1.0000 -0.0000
vn -0.0000 1.0000 -0.0000
vn -0.4482 -0.0000 -0.8939
vn -0.1421 -0.0000 0.9898
vn -0.9863 -0.0000 0.1649
vn 0.8933 -0.0000 0.4495
vn 0.6889 -0.0000 -0.7249
vt 0.000000 0.000000
vt 0.250000 0.000000
vt 0.500000 0.000000
vt 1.000000 0.000000
vt 0.750000 0.000000
s 0
f 1/1/1 2/2/1 3/3/1
f 5/4/1 1/1/1 3/3/1
f 5/4/1 3/3/1 4/5/1
f 6/1/2 8/3/2 7/2/2
f 10/4/2 8/3/2 6/1/2
f 10/4/2 9/5/2 8/3/2
f 2/2/3 1/1/3 6/1/3 7/2/3
f 5/4/4 4/5/4 9/5/4 10/4/4
f 1/1/5 5/4/5 10/4/5 6/1/5
f 4/5/6 3/3/6 8/3/6 9/5/6
f 3/3/7 2/2/7 7/2/7 8/3/7
