# Blender 3.6.0
# www.blender.org
mtllib 2circ.mtl
o path1092
v -4.714455 0.000000 -4.830144
v -3.705982 0.000000 -5.490155
v -2.655220 0.000000 -5.946095
v -1.580568 0.000000 -6.214232
v -0.500426 0.000000 -6.310838
v 0.566807 0.000000 -6.252182
v 1.602730 0.000000 -6.054535
v 2.588943 0.000000 -5.734166
v 3.507049 0.000000 -5.307344
v 4.338645 0.000000 -4.790340
v 5.065333 0.000000 -4.199424
v 5.668713 0.000000 -3.550864
v 6.130387 0.000000 -2.860929
v 6.584343 0.000000 -2.055344
v 6.880165 0.000000 -1.248416
v 7.033415 0.000000 -0.449656
v 7.059649 0.000000 0.331425
v 6.974430 0.000000 1.085318
v 6.793317 0.000000 1.802512
v 6.531868 0.000000 2.473496
v 6.205643 0.000000 3.088761
v 5.830202 0.000000 3.638795
v 5.421104 0.000000 4.114087
v 4.993910 0.000000 4.505128
v 4.564175 0.000000 4.802408
v 3.145964 0.000000 5.508117
v 1.825859 0.000000 5.953629
v 0.604431 0.000000 6.170208
v -0.517746 0.000000 6.189112
v -1.540101 0.000000 6.041606
v -2.462062 0.000000 5.758950
v -3.283058 0.000000 5.372407
v -4.002515 0.000000 4.913239
v -4.619862 0.000000 4.412706
v -5.134526 0.000000 3.902071
v -5.545936 0.000000 3.412596
v -5.853519 0.000000 2.975543
v -6.368710 0.000000 2.131038
v -6.711256 0.000000 1.288994
v -6.899673 0.000000 0.459258
v -6.952474 0.000000 -0.348328
v -6.888174 0.000000 -1.123917
v -6.725288 0.000000 -1.857663
v -6.482330 0.000000 -2.539722
v -6.177814 0.000000 -3.160251
v -5.830254 0.000000 -3.709402
v -5.458164 0.000000 -4.177331
v -5.080060 0.000000 -4.554193
v -4.714455 1.000000 -4.830144
v -3.705982 1.000000 -5.490155
v -2.655220 1.000000 -5.946095
v -1.580568 1.000000 -6.214232
v -0.500426 1.000000 -6.310838
v 0.566807 1.000000 -6.252182
v 1.602730 1.000000 -6.054535
v 2.588943 1.000000 -5.734166
v 3.507049 1.000000 -5.307344
v 4.338645 1.000000 -4.790340
v 5.065333 1.000000 -4.199424
v 5.668713 1.000000 -3.550864
v 6.130387 1.000000 -2.860929
v 6.584343 1.000000 -2.055344
v 6.880165 1.000000 -1.248416
v 7.033415 1.000000 -0.449656
v 7.059649 1.000000 0.331425
v 6.974430 1.000000 1.085318
v 6.793317 1.000000 1.802512
v 6.531868 1.000000 2.473496
v 6.205643 1.000000 3.088761
v 5.830202 1.000000 3.638795
v 5.421104 1.000000 4.114087
v 4.993910 1.000000 4.505128
v 4.564175 1.000000 4.802408
v 3.145964 1.000000 5.508117
v 1.825859 1.000000 5.953629
v 0.604431 1.000000 6.170208
v -0.517746 1.000000 6.189112
v -1.540101 1.000000 6.041606
v -2.462062 1.000000 5.758950
v -3.283058 1.000000 5.372407
v -4.002515 1.000000 4.913239
v -4.619862 1.000000 4.412706
v -5.134526 1.000000 3.902071
v -5.545936 1.000000 3.412596
v -5.853519 1.000000 2.975543
v -6.368710 1.000000 2.131038
v -6.711256 1.000000 1.288994
v -6.899673 1.000000 0.459258
v -6.952474 1.000000 -0.348328
v -6.888174 1.000000 -1.123917
v -6.725288 1.000000 -1.857663
v -6.482330 1.000000 -2.539722
v -6.177814 1.000000 -3.160251
v -5.830254 1.000000 -3.709402
v -5.458164 1.000000 -4.177331
v -5.080060 1.000000 -4.554193
vn -0.0000 -1.0000 -0.0000
vn -0.0000 1.0000 -0.0000
vn -0.9420 -0.0000 -0.3356
vn 0.8259 -0.0000 0.5638
vn 0.4455 -0.0000 0.8953
vn -0.8537 -0.0000 0.5208
vn 0.7579 -0.0000 0.6524
vn 0.5280 -0.0000 -0.8493
vn -0.7827 -0.0000 -0.6224
vn -0.9263 -0.0000 0.3768
vn 0.6752 -0.0000 0.7376
vn -0.1428 -0.0000 0.9898
vn 0.6309 -0.0000 -0.7759
vn -0.6024 -0.0000 -0.7982
vn 0.5689 -0.0000 0.8224
vn 0.7321 -0.0000 -0.6811
vn 0.3090 -0.0000 -0.9511
vn -0.9752 -0.0000 0.2214
vn -0.8977 -0.0000 -0.4405
vn 0.0549 -0.0000 -0.9985
vn -0.2931 -0.0000 0.9561
vn 0.8311 -0.0000 -0.5561
vn -0.9966 -0.0000 -0.0826
vn 0.8835 -0.0000 0.4684
vn 0.3198 -0.0000 0.9475
vn -0.4260 -0.0000 0.9047
vn 0.8712 -0.0000 -0.4909
vn 0.1746 -0.0000 0.9846
vn -0.7043 -0.0000 0.7099
vn 0.9389 -0.0000 -0.3442
vn -0.5476 -0.0000 -0.8367
vn -0.9762 -0.0000 -0.2167
vn 0.9821 -0.0000 -0.1884
vn -0.7059 -0.0000 -0.7083
vn -0.3981 -0.0000 -0.9174
vn -0.5380 -0.0000 0.8430
vn 0.9994 -0.0000 -0.0336
vn -0.2421 -0.0000 -0.9703
vn -0.6298 -0.0000 0.7768
vn 0.9937 -0.0000 0.1123
vn 0.4216 -0.0000 -0.9068
vn -0.0891 -0.0000 -0.9960
vn -0.8450 -0.0000 -0.5348
vn 0.9696 -0.0000 0.2448
vn -0.7655 -0.0000 0.6434
vn 0.9318 -0.0000 0.3631
vn 0.0168 -0.0000 0.9999
vn 0.1874 -0.0000 -0.9823
vn -0.8178 -0.0000 0.5755
vn -0.9979 -0.0000 0.0652
vt 0.063830 0.000000
vt 0.085106 0.000000
vt 0.106383 0.000000
vt 0.127660 0.000000
vt 0.042553 0.000000
vt 0.148936 0.000000
vt 0.021277 0.000000
vt 0.170213 0.000000
vt 0.000000 0.000000
vt 0.191489 0.000000
vt 1.000000 0.000000
vt 0.212766 0.000000
vt 0.978723 0.000000
vt 0.234043 0.000000
vt 0.957447 0.000000
vt 0.936170 0.000000
vt 0.255319 0.000000
vt 0.914894 0.000000
vt 0.276596 0.000000
vt 0.893617 0.000000
vt 0.297872 0.000000
vt 0.872340 0.000000
vt 0.319149 0.000000
vt 0.851064 0.000000
vt 0.340426 0.000000
vt 0.829787 0.000000
vt 0.361702 0.000000
vt 0.808511 0.000000
vt 0.382979 0.000000
vt 0.787234 0.000000
vt 0.404255 0.000000
vt 0.765957 0.000000
vt 0.425532 0.000000
vt 0.744681 0.000000
vt 0.446809 0.000000
vt 0.723404 0.000000
vt 0.468085 0.000000
vt 0.702128 0.000000
vt 0.489362 0.000000
vt 0.680851 0.000000
vt 0.510638 0.000000
vt 0.531915 0.000000
vt 0.659574 0.000000
vt 0.638298 0.000000
vt 0.553191 0.000000
vt 0.617021 0.000000
vt 0.574468 0.000000
vt 0.595745 0.000000
s 0
f 4/1/1 5/2/1 6/3/1
f 4/1/1 6/3/1 7/4/1
f 3/5/1 4/1/1 7/4/1
f 3/5/1 7/4/1 8/6/1
f 2/7/1 3/5/1 8/6/1
f 2/7/1 8/6/1 9/8/1
f 1/9/1 2/7/1 9/8/1
f 1/9/1 9/8/1 10/10/1
f 48/11/1 1/9/1 10/10/1
f 48/11/1 10/10/1 11/12/1
f 47/13/1 48/11/1 11/12/1
f 47/13/1 11/12/1 12/14/1
f 46/15/1 47/13/1 12/14/1
f 45/16/1 46/15/1 12/14/1
f 45/16/1 12/14/1 13/17/1
f 44/18/1 45/16/1 13/17/1
f 44/18/1 13/17/1 14/19/1
f 43/20/1 44/18/1 14/19/1
f 43/20/1 14/19/1 15/21/1
f 42/22/1 43/20/1 15/21/1
f 42/22/1 15/21/1 16/23/1
f 41/24/1 42/22/1 16/23/1
f 41/24/1 16/23/1 17/25/1
f 40/26/1 41/24/1 17/25/1
f 40/26/1 17/25/1 18/27/1
f 39/28/1 40/26/1 18/27/1
f 39/28/1 18/27/1 19/29/1
f 38/30/1 39/28/1 19/29/1
f 38/30/1 19/29/1 20/31/1
f 37/32/1 38/30/1 20/31/1
f 37/32/1 20/31/1 21/33/1
f 36/34/1 37/32/1 21/33/1
f 36/34/1 21/33/1 22/35/1
f 35/36/1 36/34/1 22/35/1
f 35/36/1 22/35/1 23/37/1
f 34/38/1 35/36/1 23/37/1
f 34/38/1 23/37/1 24/39/1
f 33/40/1 34/38/1 24/39/1
f 33/40/1 24/39/1 25/41/1
f 33/40/1 25/41/1 26/42/1
f 32/43/1 33/40/1 26/42/1
f 31/44/1 32/43/1 26/42/1
f 31/44/1 26/42/1 27/45/1
f 30/46/1 31/44/1 27/45/1
f 30/46/1 27/45/1 28/47/1
f 29/48/1 30/46/1 28/47/1
f 52/1/2 54/3/2 53/2/2
f 52/1/2 55/4/2 54/3/2
f 51/5/2 55/4/2 52/1/2
f 51/5/2 56/6/2 55/4/2
f 50/7/2 56/6/2 51/5/2
f 50/7/2 57/8/2 56/6/2
f 49/9/2 57/8/2 50/7/2
f 49/9/2 58/10/2 57/8/2
f 96/11/2 58/10/2 49/9/2
f 96/11/2 59/12/2 58/10/2
f 95/13/2 59/12/2 96/11/2
f 95/13/2 60/14/2 59/12/2
f 94/15/2 60/14/2 95/13/2
f 93/16/2 60/14/2 94/15/2
f 93/16/2 61/17/2 60/14/2
f 92/18/2 61/17/2 93/16/2
f 92/18/2 62/19/2 61/17/2
f 91/20/2 62/19/2 92/18/2
f 91/20/2 63/21/2 62/19/2
f 90/22/2 63/21/2 91/20/2
f 90/22/2 64/23/2 63/21/2
f 89/24/2 64/23/2 90/22/2
f 89/24/2 65/25/2 64/23/2
f 88/26/2 65/25/2 89/24/2
f 88/26/2 66/27/2 65/25/2
f 87/28/2 66/27/2 88/26/2
f 87/28/2 67/29/2 66/27/2
f 86/30/2 67/29/2 87/28/2
f 86/30/2 68/31/2 67/29/2
f 85/32/2 68/31/2 86/30/2
f 85/32/2 69/33/2 68/31/2
f 84/34/2 69/33/2 85/32/2
f 84/34/2 70/35/2 69/33/2
f 83/36/2 70/35/2 84/34/2
f 83/36/2 71/37/2 70/35/2
f 82/38/2 71/37/2 83/36/2
f 82/38/2 72/39/2 71/37/2
f 81/40/2 72/39/2 82/38/2
f 81/40/2 73/41/2 72/39/2
f 81/40/2 74/42/2 73/41/2
f 80/43/2 74/42/2 81/40/2
f 79/44/2 74/42/2 80/43/2
f 79/44/2 75/45/2 74/42/2
f 78/46/2 75/45/2 79/44/2
f 78/46/2 76/47/2 75/45/2
f 77/48/2 76/47/2 78/46/2
f 44/18/3 43/20/3 91/20/3 92/18/3
f 22/35/4 21/33/4 69/33/4 70/35/4
f 26/42/5 25/41/5 73/41/5 74/42/5
f 38/30/6 37/32/6 85/32/6 86/30/6
f 23/37/7 22/35/7 70/35/7 71/37/7
f 10/10/8 9/8/8 57/8/8 58/10/8
f 47/13/9 46/15/9 94/15/9 95/13/9
f 39/28/10 38/30/10 86/30/10 87/28/10
f 24/39/11 23/37/11 71/37/11 72/39/11
f 30/46/12 29/48/12 77/48/12 78/46/12
f 11/12/13 10/10/13 58/10/13 59/12/13
f 1/9/14 48/11/14 96/11/14 49/9/14
f 25/41/15 24/39/15 72/39/15 73/41/15
f 12/14/16 11/12/16 59/12/16 60/14/16
f 8/6/17 7/4/17 55/4/17 56/6/17
f 40/26/18 39/28/18 87/28/18 88/26/18
f 45/16/19 44/18/19 92/18/19 93/16/19
f 6/3/20 5/2/20 53/2/20 54/3/20
f 31/44/21 30/46/21 78/46/21 79/44/21
f 13/17/22 12/14/22 60/14/22 61/17/22
f 42/22/23 41/24/23 89/24/23 90/22/23
f 21/33/24 20/31/24 68/31/24 69/33/24
f 27/45/25 26/42/25 74/42/25 75/45/25
f 32/43/26 31/44/26 79/44/26 80/43/26
f 14/19/27 13/17/27 61/17/27 62/19/27
f 28/47/28 27/45/28 75/45/28 76/47/28
f 35/36/29 34/38/29 82/38/29 83/36/29
f 15/21/30 14/19/30 62/19/30 63/21/30
f 2/7/31 1/9/31 49/9/31 50/7/31
f 43/20/32 42/22/32 90/22/32 91/20/32
f 16/23/33 15/21/33 63/21/33 64/23/33
f 48/11/34 47/13/34 95/13/34 96/11/34
f 3/5/35 2/7/35 50/7/35 51/5/35
f 33/40/36 32/43/36 80/43/36 81/40/36
f 17/25/37 16/23/37 64/23/37 65/25/37
f 4/1/38 3/5/38 51/5/38 52/1/38
f 34/38/39 33/40/39 81/40/39 82/38/39
f 18/27/40 17/25/40 65/25/40 66/27/40
f 9/8/41 8/6/41 56/6/41 57/8/41
f 5/2/42 4/1/42 52/1/42 53/2/42
f 46/15/43 45/16/43 93/16/43 94/15/43
f 19/29/44 18/27/44 66/27/44 67/29/44
f 36/34/45 35/36/45 83/36/45 84/34/45
f 20/31/46 19/29/46 67/29/46 68/31/46
f 29/48/47 28/47/47 76/47/47 77/48/47
f 7/4/48 6/3/48 54/3/48 55/4/48
f 37/32/49 36/34/49 84/34/49 85/32/49
f 41/24/50 40/26/50 88/26/50 89/24/50
