# Blender 3.6.0
# www.blender.org
mtllib 3star.mtl
o path1111
v -2.293620 0.000000 -2.403036
v -0.039221 0.000000 -7.076959
v 2.310100 0.000000 -2.379310
v 7.032471 0.000000 -0.149113
v 2.333830 0.000000 2.199711
v -0.039221 0.000000 6.968534
v -2.293620 0.000000 2.247162
v -6.921070 0.000000 0.016965
v -2.293620 1.000000 -2.403036
v -0.039221 1.000000 -7.076959
v 2.310100 1.000000 -2.379310
v 7.032471 1.000000 -0.149113
v 2.333830 1.000000 2.199711
v -0.039221 1.000000 6.968534
v -2.293620 1.000000 2.247162
v -6.921070 1.000000 0.016965
vn -0.0000 -1.0000 -0.0000
vn -0.0000 1.0000 -0.0000
vn -0.4634 -0.0000 -0.8861
vn -0.9024 -0.0000 0.4309
vn 0.4270 -0.0000 -0.9042
vn -0.9007 -0.0000 -0.4344
vn 0.4471 -0.0000 0.8945
vn -0.4342 -0.0000 0.9008
vn 0.8953 -0.0000 0.4455
vn 0.8944 -0.0000 -0.4473
vt 0.000000 0.000000
vt 0.142857 0.000000
vt 0.285714 0.000000
vt 1.000000 0.000000
vt 0.428571 0.000000
vt 0.571429 0.000000
vt 0.857143 0.000000
vt 0.714286 0.000000
s 0
f 1/1/1 2/2/1 3/3/1
f 8/4/1 1/1/1 3/3/1
f 8/4/1 3/3/1 4/5/1
f 8/4/1 4/5/1 5/6/1
f 7/7/1 8/4/1 5/6/1
f 7/7/1 5/6/1 6/8/1
f 9/1/2 11/3/2 10/2/2
f 16/4/2 11/3/2 9/1/2
f 16/4/2 12/5/2 11/3/2
f 16/4/2 13/6/2 12/5/2
f 15/7/2 13/6/2 16/4/2
f 15/7/2 14/8/2 13/6/2
f 1/1/3 8/4/3 16/4/3 9/1/3
f 7/7/4 6/8/4 14/8/4 15/7/4
f 4/5/5 3/3/5 11/3/5 12/5/5
f 2/2/6 1/1/6 9/1/6 10/2/6
f 5/6/7 4/5/7 12/5/7 13/6/7
f 8/4/8 7/7/8 15/7/8 16/4/8
f 6/8/9 5/6/9 13/6/9 14/8/9
f 3/3/10 2/2/10 10/2/10 11/3/10
